<?xml version="1.0" standalone="no"?>
<!DOCTYPE svg PUBLIC "-//W3C//DTD SVG 20010904//EN"
 "http://www.w3.org/TR/2001/REC-SVG-20010904/DTD/svg10.dtd">
<svg version="1.0" xmlns="http://www.w3.org/2000/svg"
 width="700.000000pt" height="700.000000pt" viewBox="0 0 700.000000 700.000000"
 preserveAspectRatio="xMidYMid meet">
<metadata>
Created by potrace 1.11, written by Peter Selinger 2001-2013
</metadata>
<g transform="translate(0.000000,700.000000) scale(0.100000,-0.100000)"
fill="#000000" stroke="none">
<path d="M3279 6995 c-2 -1 -42 -6 -89 -9 -47 -4 -94 -9 -105 -11 -11 -2 -42
-7 -70 -10 -43 -5 -148 -22 -180 -29 -5 -2 -28 -6 -50 -10 -83 -16 -244 -59
-350 -93 -684 -220 -1277 -640 -1720 -1217 -224 -292 -421 -666 -537 -1021
-38 -116 -104 -376 -112 -440 -4 -27 -9 -57 -11 -65 -6 -22 -12 -60 -20 -126
-4 -33 -9 -67 -11 -77 -9 -50 -18 -259 -18 -402 1 -255 16 -411 65 -665 81
-426 257 -857 497 -1225 144 -220 270 -374 466 -570 282 -282 553 -478 907
-656 75 -38 140 -69 143 -69 3 0 29 -11 58 -24 218 -99 628 -213 868 -242 30
-3 66 -8 80 -10 134 -19 545 -26 715 -11 85 8 111 11 195 23 19 3 53 7 75 10
22 3 92 17 155 30 661 143 1253 462 1725 930 227 225 360 393 550 694 51 81
144 260 197 380 9 19 25 55 36 80 44 100 119 327 152 460 11 47 25 99 30 115
7 25 34 180 54 315 27 178 28 733 2 890 -3 14 -7 43 -10 65 -9 70 -17 118 -33
190 -8 39 -17 81 -19 95 -21 107 -96 345 -161 510 -57 145 -196 425 -253 510
-9 14 -43 65 -75 114 -226 350 -540 676 -889 924 -126 90 -271 182 -286 182
-5 0 -10 5 -10 10 0 6 -5 10 -10 10 -6 0 -36 15 -68 32 -286 163 -740 317
-1097 373 -59 10 -52 9 -140 19 -38 4 -83 10 -100 12 -36 6 -541 14 -546 9z
m352 -1185 c177 -169 181 -172 412 -394 l176 -169 -63 -66 c-36 -36 -81 -84
-102 -106 -20 -22 -114 -121 -209 -220 -95 -99 -211 -220 -258 -270 l-85 -90
-79 76 c-43 41 -95 91 -116 110 l-37 35 40 44 c22 24 77 82 123 129 46 48 99
104 118 125 l34 39 -145 -6 c-178 -7 -401 -49 -515 -96 -291 -121 -437 -217
-644 -422 -122 -121 -258 -333 -336 -522 -38 -94 -90 -278 -101 -362 -3 -27
-8 -59 -11 -70 -8 -40 -10 -292 -2 -365 38 -347 182 -678 404 -929 248 -281
561 -462 942 -543 144 -30 442 -33 603 -5 518 91 976 434 1210 906 64 128 125
312 145 431 3 19 8 46 10 60 15 75 23 339 12 405 -3 17 -8 55 -12 85 -10 79
-40 205 -71 296 -56 168 -187 404 -290 525 -42 49 -193 200 -232 232 l-34 27
69 88 c37 48 86 111 108 140 21 28 42 52 46 52 17 0 159 -129 255 -231 146
-158 308 -415 380 -605 6 -16 18 -45 25 -64 8 -19 14 -37 15 -40 0 -3 3 -12 7
-20 29 -71 68 -249 93 -420 9 -68 12 -305 3 -395 -60 -638 -396 -1194 -929
-1537 -494 -318 -1103 -407 -1664 -243 -641 186 -1151 676 -1361 1306 -43 133
-79 282 -90 389 -4 30 -9 66 -11 80 -5 32 -6 319 0 345 2 11 7 51 10 89 4 38
9 72 11 76 2 3 6 25 10 50 10 67 51 218 80 296 14 38 27 74 29 79 12 42 115
249 145 294 10 14 42 62 72 106 57 85 61 90 155 199 57 66 150 154 234 222 19
16 37 31 40 35 8 9 180 122 234 153 190 110 450 206 626 231 24 4 47 8 51 10
5 4 52 9 159 20 19 2 87 4 150 4 l114 1 -68 65 c-37 35 -113 108 -168 160
l-101 96 24 26 c79 88 194 203 200 201 5 -2 77 -68 160 -148z m59 -1605 l0
-92 58 -12 c143 -32 292 -140 355 -258 l28 -53 -88 -40 c-48 -23 -109 -50
-134 -61 l-47 -21 -45 45 c-105 106 -293 143 -463 92 -91 -27 -136 -79 -129
-151 4 -50 46 -86 123 -107 54 -15 79 -20 170 -32 20 -3 51 -7 67 -10 17 -2
53 -7 80 -10 112 -14 259 -62 333 -109 126 -79 192 -223 179 -391 -10 -137
-72 -250 -180 -330 -66 -49 -184 -99 -259 -110 l-48 -7 0 -104 0 -104 -160 0
-160 0 0 98 0 99 -86 17 c-47 9 -93 21 -102 26 -9 5 -42 21 -72 35 -125 60
-251 193 -284 302 -5 17 -2 23 16 28 13 4 43 16 68 28 85 38 204 87 206 84 1
-1 9 -17 18 -35 34 -66 129 -136 221 -164 140 -41 325 -22 417 43 57 41 80
130 47 190 -20 38 -146 92 -242 105 -17 2 -42 6 -54 8 -12 3 -53 8 -90 11 -37
4 -75 8 -83 10 -8 3 -30 7 -47 10 -65 11 -189 55 -233 83 -88 56 -133 117
-162 217 -45 155 5 335 120 435 76 66 238 135 325 139 15 1 17 12 17 94 l0 94
160 0 160 0 0 -92z"/>
</g>
</svg>
